<svg xmlns="http://www.w3.org/2000/svg" xmlns:xlink="http://www.w3.org/1999/xlink" width="16" height="16" viewBox="0 0 16 16">
  <defs>
    <clipPath id="clip-user-icon">
      <rect width="16" height="16"/>
    </clipPath>
  </defs>
  <g id="user-icon" clip-path="url(#clip-user-icon)">
    <rect width="16" height="16" fill="#fff"/>
    <g id="user-icon-2" data-name="user-icon">
      <rect id="bg" width="16" height="16" fill="none"/>
      <g id="Group_9" data-name="Group 9">
        <path id="Path_233" data-name="Path 233" d="M63,178a2.887,2.887,0,0,1-3-2.751v-.5a3.011,3.011,0,0,1,6,0v.5A2.887,2.887,0,0,1,63,178Z" transform="translate(-55.07 -171)" fill="#7863d7"/>
        <path id="Path_234" data-name="Path 234" d="M66,187H56.144a1.107,1.107,0,0,1-.813-.348.95.95,0,0,1-.251-.79,6.12,6.12,0,0,1,11.979,0,.95.95,0,0,1-.251.79A1.107,1.107,0,0,1,66,187Z" transform="translate(-53.07 -172)" fill="#7863d7"/>
      </g>
    </g>
  </g>
</svg>
