<svg id="ill-3" xmlns="http://www.w3.org/2000/svg" width="170" height="170" viewBox="0 0 170 170">
  <rect id="bg" width="170" height="170" fill="none"/>
  <g id="ill" transform="translate(-1012.03 -190.841)">
    <path id="b" d="M1142.051,273.847a30.265,30.265,0,0,1-5.011,2.581,26.968,26.968,0,0,1-15.432,1.436c-7.065-1.42-13.062-5.31-21.339-3.671-6.952,1.377-14.23,6.437-21.388,9.383-29.5,12.141-46.16-20.506-24.964-48.881,5.62-7.524,13.622-13.086,21.4-17.516,22.2-12.642,63.458-41.656,76.589-22.485,4.108,6,1.759,15.635.283,24.324-1.8,10.612.821,17.885,2.579,26.749a25.207,25.207,0,0,1-3.041,18.486A30.92,30.92,0,0,1,1142.051,273.847Z" transform="translate(883.973 1378.771) rotate(-90)" fill="#fff"/>
    <path id="Path_199" data-name="Path 199" d="M1127.474,224.828a30.551,30.551,0,0,0,8.707,10.3c6.016,4.517,12.214,13.035,5.651,20.417s-22.741,8.132-23.47,3.4-8.467-.185-16.852.937-33.745,5.431-29.977-18.424c3.1-19.622,10.991-11.467,14.213-27.177S1127.474,224.828,1127.474,224.828Z" fill="#333"/>
    <path id="Path_200" data-name="Path 200" d="M1091.429,266.213c.4-.173,6.282-.344,5.957-4.874s-.935-13.025-.935-13.025l15.07-9.707s-.608,18.269,1.474,20.528a99.233,99.233,0,0,0,7.608,6.671l-2.994,25.144s-27.733,3.285-28.445,2.913-3.582-15.524-3.411-16.961S1091.429,266.213,1091.429,266.213Z" fill="#f0d7b4"/>
    <path id="Path_201" data-name="Path 201" d="M1070.891,287.59l-4.843,35.679s-2.151,26.479,18.314,27.474c12.753.62,37.286-1.6,41.626-9.9s5.327-36.571,5.327-36.571l-12.366-39.425a110.01,110.01,0,0,1-8.1,12.11c-13.367,18.032-19.465,17.744-19.417-10.74Z" fill="#e0e0e0"/>
    <path id="Path_202" data-name="Path 202" d="M1089.486,219.6s-4.285,10.775-4.192,12.968-.583,16.249,5.982,20.049,14.416-1.764,17.661-6.1,8.79-14.239,8.79-14.239l-8.428-21.381-5.192-4.434Z" fill="#f0d7b4"/>
    <path id="Path_203" data-name="Path 203" d="M1102.383,226.976s-.389-1.478,1.807-1.626,4.417,1.87,5.188,2.738c.65.731.1,1.49-.764.851C1105.561,226.685,1102.58,228.346,1102.383,226.976Z" fill="#333"/>
    <path id="Path_204" data-name="Path 204" d="M1094.365,225.867s.778-1.3-1.287-2.093a4.54,4.54,0,0,0-4.423.625c-.822.508-1.063,1.651-.059,1.294C1092.141,224.435,1093.8,227.122,1094.365,225.867Z" transform="translate(1 -1)" fill="#333"/>
    <path id="Path_205" data-name="Path 205" d="M1104.051,233.1c-.456,1.381-1.471,2.272-2.265,1.988s-1.069-1.632-.612-3.014,1.471-2.272,2.265-1.989S1104.508,231.723,1104.051,233.1Z" fill="#333"/>
    <path id="Path_206" data-name="Path 206" d="M1092.357,230.646c-.457,1.382-1.471,2.272-2.266,1.989s-1.068-1.633-.611-3.014,1.47-2.272,2.265-1.989S1092.813,229.265,1092.357,230.646Z" fill="#333"/>
    <path id="Path_207" data-name="Path 207" d="M1095.916,230.534c-.126.071-1.576,3.266-3.456,3.909-1.8.618-2.354,2.772.652,3.857" transform="translate(0 1)" fill="none" stroke="#6f6b5e" stroke-linecap="round" stroke-linejoin="round" stroke-width="1.053"/>
    <path id="Path_208" data-name="Path 208" d="M1103,210.31s1.942,9.668,8.124,15.032,8.106,8.724,8.106,8.724l8.241,6.424s.568-12.306,0-15.662,2.235-21.238-18.582-23.181Z" fill="#333"/>
    <path id="Path_209" data-name="Path 209" d="M1087.326,225.342s-3.2-6.616-2.837-11.87,9.7-11.185,16.326-12.248,8.077.423,8.077.423l2.336,7.148s.742-2.1-9.953,5.852C1097.326,217.583,1092.935,213.321,1087.326,225.342Z" fill="#333"/>
    <line id="Line_2" data-name="Line 2" y1="1.452" x2="12.334" transform="translate(1106.53 231.888)" fill="none" stroke="#fff" stroke-linecap="round" stroke-linejoin="round" stroke-width="1"/>
    <path id="Path_210" data-name="Path 210" d="M1113.232,233.783s2.258-5.445,7.456-2.677-1.21,10.859-6.794,10.331S1113.232,233.783,1113.232,233.783Z" fill="#f0d7b4"/>
    <path id="Path_211" data-name="Path 211" d="M1090.611,241.35c-.16-.133-.707,6.708,3.784,6.325s5.114-5.325,5.114-5.325S1094.445,244.537,1090.611,241.35Z" fill="#fefdfb"/>
    <path id="Path_212" data-name="Path 212" d="M1118.355,267.577a3.242,3.242,0,0,1,4.021-3.889c4.386,1.351,10.369,2.982,13.08,2.772,4.545-.352,11.986,11.627,16.818,25.475s8.715,13.646,14.6,27.974a35.4,35.4,0,0,1,1.555,4.7c2.9,11.379-5.034,22.644-16.355,23.267l-3.9.214s-8.4-10.032-12.544-18.156c-.854-1.674-4.83-8.452-8.413-22.79C1124.585,296.6,1120.389,277.131,1118.355,267.577Z" fill="#e0e0e0"/>
    <path id="Path_213" data-name="Path 213" d="M1091.429,266.213c.766-1.033-.57-1.84-1.825-1.863-3.162-.055-8.181,2.311-11.211,1.9-6.51-.885-9.989,1.062-16.589,9.457-12.1,15.392-17.181,13.885-17.181,13.885s-11.81-11.233-15.458,3.012c-2.636,10.3-2.137,14.28-1.748,16.977,1.748,12.126,12.49,11.124,15,11.255,5.742.3,33.057-16.141,32.7-18.909C1075.062,301.542,1083.876,276.406,1091.429,266.213Z" fill="#e0e0e0"/>
    <path id="Path_214" data-name="Path 214" d="M1106.653,235.513a5.1,5.1,0,0,1-4.152,5.816,4.946,4.946,0,0,1-5.813-4,5.1,5.1,0,0,1,4.153-5.816A4.944,4.944,0,0,1,1106.653,235.513Z" transform="translate(0 -3)" fill="none" stroke="#fff" stroke-linecap="round" stroke-linejoin="round" stroke-width="1"/>
    <path id="Path_215" data-name="Path 215" d="M1091.978,231.732a5.1,5.1,0,0,1-4.153,5.816,4.943,4.943,0,0,1-5.812-4,5.1,5.1,0,0,1,4.153-5.815A4.944,4.944,0,0,1,1091.978,231.732Z" transform="translate(2 -3)" fill="none" stroke="#fff" stroke-linecap="round" stroke-linejoin="round" stroke-width="1"/>
    <path id="Path_216" data-name="Path 216" d="M1078.635,280.329s-10.744,7.76-10.381,26.689" fill="none" stroke="#333" stroke-linecap="round" stroke-linejoin="round" stroke-width="1"/>
    <path id="Path_217" data-name="Path 217" d="M1130.458,317.506l-6.126-25.441v-2.584" fill="none" stroke="#333" stroke-linecap="round" stroke-linejoin="round" stroke-width="1"/>
    <path id="Path_218" data-name="Path 218" d="M1096.681,253.987l.534,4.962,8.654-8.744C1102.7,252.1,1099.579,253.678,1096.681,253.987Z" fill="#d9b786"/>
    <path id="Path_219" data-name="Path 219" d="M1115.707,237.55c-.972.553-1.786-.528-1.1-1.476.971-1.345,2.225-2.508,3.337-1.724C1119.181,235.224,1117.455,236.553,1115.707,237.55Z" fill="#d9b786"/>
    <path id="Path_220" data-name="Path 220" d="M1124.332,237.7s13.647,7.62,7.358,16.181" fill="none" stroke="#6f6b5f" stroke-linecap="round" stroke-linejoin="round" stroke-width="1"/>
    <path id="Path_221" data-name="Path 221" d="M1079.339,234.1a15.332,15.332,0,0,0-6.53,13.6" fill="none" stroke="#6f6b5f" stroke-linecap="round" stroke-linejoin="round" stroke-width="1"/>
    <line id="Line_55" data-name="Line 55" y1="7.611" x2="5.546" transform="translate(1104.118 204.008)" fill="none" stroke="#6f6b5f" stroke-linecap="round" stroke-linejoin="round" stroke-width="1"/>
    <path id="Path_222" data-name="Path 222" d="M1109.1,309.649l-14.094,1.421s-10.592,4.122-9.984,6.1,10.206-2.287,10.206-2.287-6.238,7.347-4.147,7.866,9.586-3.549,9.586-3.549-7.062,4.043-5.467,5.483,8.707-2.316,8.707-2.316,10,2.953,12.427.773,1.371-10.935.932-10.9S1109.1,309.649,1109.1,309.649Z" fill="#f0d7b4"/>
    <path id="Path_223" data-name="Path 223" d="M1148.45,349.377a112.384,112.384,0,0,1-38.537-34.367l7.357-2.769s33.816,15.133,38.539,22.579c4.248,6.7,3.223,10.729,1.135,13.087A6.987,6.987,0,0,1,1148.45,349.377Z" fill="#f0d7b4"/>
    <path id="Path_224" data-name="Path 224" d="M1026.093,303.676a123.562,123.562,0,0,1,10.477-52.318l9.495,4.992s-.175,39.017-4.144,46.923c-3.569,7.112-7.461,8.142-10.46,7.395A7.4,7.4,0,0,1,1026.093,303.676Z" fill="#f0d7b4"/>
    <path id="Path_225" data-name="Path 225" d="M1046.85,247.728l3.332-16.316a4.745,4.745,0,0,0-.075-2.216c-.836-3.029-3.251-11.156-4.985-10.773-2.128.47-2.518,8.243-2.518,8.243s-3.189-4.327-3.957-2.031,2.668,11.166,2.668,11.166-3.455-8.38-5.13-6.742,1.476,10.043,1.476,10.043-2.376,11.906-.364,14.876,8.6,5.116,8.6,4.618S1046.85,247.728,1046.85,247.728Z" fill="#f0d7b4"/>
    <path id="Path_227" data-name="Path 227" d="M1058.171,258.455l-1.889,10.8,9.1-2.688,6.442,5.252,2.035-11.326-8.237,3.5Z" transform="translate(72.651 535.02) rotate(-31)" fill="#7863d7"/>
  </g>
</svg>
