<svg id="ill-2" xmlns="http://www.w3.org/2000/svg" width="170" height="170" viewBox="0 0 170 170">
  <rect id="bg" width="170" height="170" fill="none"/>
  <g id="ill" transform="translate(-224.536 -194.36)">
    <path id="b" d="M1142.654,279.962a29.821,29.821,0,0,1-5.042,2.765,25.591,25.591,0,0,1-15.527,1.539c-7.108-1.522-13.143-5.689-21.471-3.933-6.995,1.475-14.318,6.9-21.52,10.054-29.685,13.009-46.444-21.972-25.117-52.376,5.655-8.062,13.706-14.021,21.534-18.769,22.336-13.546,63.849-44.635,77.061-24.093,4.133,6.428,1.77,16.753.285,26.063-1.814,11.37.826,19.164,2.595,28.661a28.525,28.525,0,0,1-3.059,19.808A32.172,32.172,0,0,1,1142.654,279.962Z" transform="translate(-809.276 64.069) rotate(-2)" fill="#fff"/>
    <path id="Path_144" data-name="Path 144" d="M329.737,341.806a5.514,5.514,0,0,0,2.918-.835l4.37-2.709c3.316-2.181,2.53-7.847,1.949-10.809l-5.2-30.208c-.581-2.961-3.694-4.594-6.917-3.629L321,295.371c-3.223.965-5.385,4.178-4.8,7.14l6.93,35.317C323.6,340.217,326.818,341.792,329.737,341.806Z" transform="translate(0 0.19)" fill="#f0d7b4"/>
    <path id="Path_145" data-name="Path 145" d="M325.35,252.176s.611,5.782,3.583,8.745,6.87,13.984-1.79,15.509-34.141,2.225-36.574-8.617-1.187-24.64-.808-26.039,7.753-9.533,7.753-9.533l29.2-2.161Z" transform="translate(0 0.048)" fill="#333"/>
    <path id="Path_146" data-name="Path 146" d="M315.837,273.9s-7.029-.322-7.522-4.62,3.435-8.192,3.435-8.192l-11.86-8.13s-1.172,14.463-5.667,14.6a69.821,69.821,0,0,0-9.148,1l7.451,19.717,27.178.058Z" transform="translate(0 0.081)" fill="#f0d7b4"/>
    <path id="Path_147" data-name="Path 147" d="M313.422,272.725a1.573,1.573,0,0,0-1.958.339c-1.309,1.476-4.43,3.928-10.23,3.009-8.119-1.286-18.177-7.444-18.177-7.444l-.611-.7L269.214,324.4l.562,18.116a4.191,4.191,0,0,0,4.425,3.935c17.411,4.735,39.225,15.441,48.224-1.491,1.493-.832,1.559-2.939,1.477-4.887l-1.93-45.538-6.466-20.625Z" transform="translate(0 0.19)" fill="#e0e0e0"/>
    <path id="Path_148" data-name="Path 148" d="M315.837,273.9s19.931-1.515,21.7,29.429c0,0,2.822,6.831,1.771,7.762s-18.86,1.2-18.86,1.2-6.229-24.328-6.506-25.757S315.837,273.9,315.837,273.9Z" transform="translate(0 0.118)" fill="#e0e0e0"/>
    <path id="Path_149" data-name="Path 149" d="M353.678,313.954s-10.919,22.808-19.11,25.583-10.658-3.081-11.216-4.281,26.933-31.926,26.933-31.926Z" transform="translate(0 0.19)" fill="#f0d7b4"/>
    <path id="Path_150" data-name="Path 150" d="M321.346,225.215s6.342,7.172,4.086,15.687-1.182,9.034-1.447,10.72c-.9,5.739-5.5,11.868-10.162,12.461s-14.07-7.1-14.07-7.1-3.33-6.5-1.847-12.123c1.617-6.129,2.67-7.5,2.67-7.5s6.578-17.1,10.669-15.784S321.346,225.215,321.346,225.215Z" fill="#f0d7b4"/>
    <path id="Path_151" data-name="Path 151" d="M318.385,245.79c-.151,2.031-.16,3.31.529,4.726.625,1.283.46,3.243-1.641,2.948-2.826-.4-2.639-.957-2.639-.957" transform="translate(0 0.055)" fill="none" stroke="#6f6b5f" stroke-linecap="round" stroke-linejoin="round" stroke-width="1"/>
    <path id="Path_152" data-name="Path 152" d="M314.493,258.155s-2.833.761-3.9-3.181" transform="translate(0 0.065)" fill="none" stroke="#6f6b5f" stroke-linecap="round" stroke-linejoin="round" stroke-width="1"/>
    <path id="Path_153" data-name="Path 153" d="M310.381,244.379a1.542,1.542,0,1,0,2.992.516c.17-.988-.5-1.073-1.328-1.215S310.552,243.392,310.381,244.379Z" transform="translate(0 0.051)" fill="#21173d"/>
    <path id="Path_154" data-name="Path 154" d="M321.055,246.027c-.082,1,.371,1.85,1.011,1.9s1.226-.715,1.308-1.713-.358-.81-1-.862S321.137,245.029,321.055,246.027Z" transform="translate(0 0.053)" fill="#21173d"/>
    <path id="Path_155" data-name="Path 155" d="M313.948,239.774a.817.817,0,0,1-.98.629,9.495,9.495,0,0,0-4.308-.192c-1.78.587-.482-1.663,2.183-1.6a19.762,19.762,0,0,1,2.433.183.817.817,0,0,1,.672.979Z" transform="translate(0 0.044)" fill="#21173d"/>
    <path id="Path_156" data-name="Path 156" d="M320.7,240.265c-.051.453.19.824.537.819a5.34,5.34,0,0,1,3.148.732c1.123.948.789-1.512-1.144-2.018a11.1,11.1,0,0,0-1.8-.341c-.353-.03-.692.342-.744.808Z" transform="translate(0 0.045)" fill="#21173d"/>
    <path id="Path_157" data-name="Path 157" d="M310.3,220.345s13.493,11.877,14.868,17.818-2.223,8.376.183,14.013c0,0,4.039-7.02,5.016-10.316s2.746-20.333-7.1-24.477-10.534-1.562-10.534-1.562Z" fill="#333"/>
    <path id="Path_158" data-name="Path 158" d="M311.854,219.219s2.45,11.065-5.85,16.174-8.231,8.7-8.231,8.7l-16.123-1.836s4.178-27.085,20.542-27.86S311.854,219.219,311.854,219.219Z" fill="#333"/>
    <path id="Path_159" data-name="Path 159" d="M304.98,216.122s1.784-15.17-9.737-11.054,1.958,16.423,2.7,16.944S304.98,216.122,304.98,216.122Z" fill="#333"/>
    <path id="Path_160" data-name="Path 160" d="M309.988,263.356a54.469,54.469,0,0,1-6.088-3.341l4.41,7.8A10.462,10.462,0,0,1,309.988,263.356Z" transform="translate(0 0.074)" fill="#d9b786"/>
    <ellipse id="Ellipse_3" data-name="Ellipse 3" cx="5.008" cy="5" rx="5.008" ry="5" transform="translate(304.523 282.4)" fill="#fff"/>
    <path id="Path_161" data-name="Path 161" d="M330.1,291.66a5.008,5.008,0,0,0,4.52-3.2,27.537,27.537,0,0,0-3.633-6.681,5,5,0,1,0-.887,9.883Z" transform="translate(0 0.105)" fill="#fff"/>
    <path id="Path_162" data-name="Path 162" d="M304.78,302.111a5.007,5.007,0,1,1-5.16-4.843A5,5,0,0,1,304.78,302.111Z" transform="translate(0 0.126)" fill="#fff"/>
    <path id="Path_163" data-name="Path 163" d="M325.2,301.48a5.008,5.008,0,1,1-5.161-4.843A5,5,0,0,1,325.2,301.48Z" transform="translate(0 0.125)" fill="#fff"/>
    <path id="Path_164" data-name="Path 164" d="M299.109,280.776a5,5,0,0,0,4.824-4.507,15.37,15.37,0,0,1-2.7-.2,36.082,36.082,0,0,1-6.993-1.977,4.994,4.994,0,0,0,4.868,6.68Z" transform="translate(0 0.092)" fill="#fff"/>
    <path id="Path_165" data-name="Path 165" d="M298.474,320.157a5.007,5.007,0,1,1-5.16-4.843A5,5,0,0,1,298.474,320.157Z" transform="translate(0 0.15)" fill="#fff"/>
    <ellipse id="Ellipse_4" data-name="Ellipse 4" cx="5.008" cy="5" rx="5.008" ry="5" transform="translate(308.88 314.83)" fill="#fff"/>
    <path id="Path_166" data-name="Path 166" d="M299.5,353.534a5,5,0,0,0-9.306-2.227A87.2,87.2,0,0,0,299.5,353.534Z" transform="translate(0 0.19)" fill="#fff"/>
    <path id="Path_167" data-name="Path 167" d="M314.773,348.21a5,5,0,0,0-4.851,5.153,5.278,5.278,0,0,0,.047.538,16.133,16.133,0,0,0,8.713-4A5,5,0,0,0,314.773,348.21Z" transform="translate(0 0.19)" fill="#fff"/>
    <path id="Path_168" data-name="Path 168" d="M309.779,337.659a5.008,5.008,0,1,1-5.161-4.843A5,5,0,0,1,309.779,337.659Z" transform="translate(0 0.19)" fill="#fff"/>
    <path id="Path_169" data-name="Path 169" d="M269.511,333.959l.265,8.562a3.856,3.856,0,0,0,.262,1.277,4.995,4.995,0,0,0-.527-9.839Z" transform="translate(0 0.19)" fill="#fff"/>
    <path id="Path_170" data-name="Path 170" d="M310.087,243.613a4.626,4.626,0,0,1,3.732.647" transform="translate(0 0.05)" fill="none" stroke="#21173d" stroke-linecap="round" stroke-linejoin="round" stroke-width="0.509"/>
    <path id="Path_171" data-name="Path 171" d="M320.847,245.392a4.63,4.63,0,0,1,3.732.647" transform="translate(0 0.052)" fill="none" stroke="#21173d" stroke-linecap="round" stroke-linejoin="round" stroke-width="0.509"/>
    <path id="Path_172" data-name="Path 172" d="M324.091,340.784l-.2-.982-.312-7.354-.022.007a5,5,0,0,0,1.119,9.7h0A3.851,3.851,0,0,1,324.091,340.784Z" transform="translate(0 0.19)" fill="#fff"/>
    <path id="Path_173" data-name="Path 173" d="M289.25,345.99s20.067-12.015,33.978-38.17l-7.248-1.491s-29.662,18.218-33.106,25.561C276.679,345.1,289.25,345.99,289.25,345.99Z" transform="translate(0 0.19)" fill="#f0d7b4"/>
    <path id="Path_174" data-name="Path 174" d="M312.376,310.132l10.406-16.72s5.273-4.206,11.133,1.947,5.962,5.088,5.962,5.088l-2.34,2.887-6.463-3.843s.831,9.678-3.91,11.172-5.942.184-5.942.184-3.447,3.611-4.9,4.734S312.376,310.132,312.376,310.132Z" transform="translate(0 0.132)" fill="#f0d7b4"/>
    <path id="Path_175" data-name="Path 175" d="M334.121,309.819l9.877-.3a7.308,7.308,0,0,0,5.664-3.626l9.482-18.55c.985-1.929.049-3.452-2.08-3.387l-9.878.306a7.307,7.307,0,0,0-5.663,3.625l-9.482,18.551C331.056,308.361,331.992,309.885,334.121,309.819Z" transform="translate(0 0.122)" fill="#333"/>
    <path id="Path_176" data-name="Path 176" d="M358.645,283.949c-.026-1.156-.94-1.931-2.471-1.884l-9.878.306A7.307,7.307,0,0,0,340.633,286l-3.855,7.541" transform="translate(0 0.106)" fill="none" stroke="#333" stroke-linecap="round" stroke-linejoin="round" stroke-width="1"/>
    <path id="Path_177" data-name="Path 177" d="M356.548,295.378l-1.17-1.852a2.5,2.5,0,0,0-2.077-1.162l-5.652-.073a.92.92,0,0,0-.906,1.136h0a.92.92,0,0,0,.677.675l5.712,1.382.327,2.975-4.047-1.063-3.666.669a1.271,1.271,0,0,0-1.043,1.289l.008.254.383,4.459a2.043,2.043,0,0,0,2.261,1.852l3.524-.392.147,4.758,2.652,3.669,3.593-8a9.515,9.515,0,0,0,.394-5.29Z" transform="translate(0 0.13)" fill="#f0d7b4"/>
    <path id="Path_178" data-name="Path 178" d="M315.837,273.9l-.4-.069-.766-.4a4.952,4.952,0,0,0-.3,1.864,5.009,5.009,0,0,0,9.941.693A17.171,17.171,0,0,0,315.837,273.9Z" transform="translate(0 0.092)" fill="#fff"/>
    <path id="Path_179" data-name="Path 179" d="M292.283,344.287l5.006-4.272c2.733-3.021.047.5-1.374-2.97l-16.952-41.337c-1.421-3.467-5.023-5.029-8-3.473l-5.42,2.83c-2.981,1.556-4.257,5.666-2.836,9.132a119.985,119.985,0,0,0,16.423,39.489C280.655,346.558,289.765,347.221,292.283,344.287Z" transform="translate(0 0.19)" fill="#f0d7b4"/>
    <path id="Path_180" data-name="Path 180" d="M282.446,267.929s-6.993,4.206-11.206,6.071-8.926,9.519-9.488,17.144-2.86,24.423.866,26.216,16.041,2.291,21.3-2.035a47.445,47.445,0,0,0,7.651-7.607Z" transform="translate(0 0.122)" fill="#e0e0e0"/>
    <path id="Path_181" data-name="Path 181" d="M273.7,288.4a5.007,5.007,0,1,1-5.16-4.843A5,5,0,0,1,273.7,288.4Z" transform="translate(0 0.107)" fill="#fff"/>
    <path id="Path_182" data-name="Path 182" d="M294.116,287.771a5.007,5.007,0,1,1-5.16-4.843A5,5,0,0,1,294.116,287.771Z" transform="translate(0 0.107)" fill="#fff"/>
    <path id="Path_183" data-name="Path 183" d="M260.539,308.265a4.994,4.994,0,0,0,.518-9.262C260.794,302.071,260.563,305.339,260.539,308.265Z" transform="translate(0 0.128)" fill="#fff"/>
    <path id="Path_184" data-name="Path 184" d="M284.361,302.742a5.007,5.007,0,1,1-5.16-4.843A5,5,0,0,1,284.361,302.742Z" transform="translate(0 0.127)" fill="#fff"/>
    <path id="Path_185" data-name="Path 185" d="M283.54,276.255a5.008,5.008,0,1,1-5.16-4.843A5,5,0,0,1,283.54,276.255Z" transform="translate(0 0.091)" fill="#fff"/>
    <path id="Path_186" data-name="Path 186" d="M268.636,318.589a33.851,33.851,0,0,0,8.54-.473,5,5,0,0,0-8.54.473Z" transform="translate(0 0.144)" fill="#fff"/>
    <path id="Path_187" data-name="Path 187" d="M298.484,245.374a237.748,237.748,0,0,0,2.878,24.126c.9,4.822-3.627,7.89-10.3,6.249a18.023,18.023,0,0,1-7.512-4.285c-2.968-3.053-3-9.077-2.944-19.472.041-7.37,1.171-10.441,1.171-10.441C288.474,238.486,295.852,232.824,298.484,245.374Z" transform="translate(0 0.057)" fill="#333"/>
    <path id="Path_188" data-name="Path 188" d="M302.5,243.3s-1.07-5.4-6.436-3.3c-4.356,1.707-.97,9.89,4.545,10.341S302.5,243.3,302.5,243.3Z" transform="translate(0 0.048)" fill="#f0d7b4"/>
    <path id="Path_189" data-name="Path 189" d="M298.765,246.615c.825.717,1.828-.116,1.361-1.137-.664-1.452-1.638-2.792-2.868-2.3C295.885,243.73,297.28,245.324,298.765,246.615Z" transform="translate(0 0.05)" fill="#d9b786"/>
    <line id="Line_1" data-name="Line 1" x1="2.747" y1="13.617" transform="translate(283.681 298.706)" fill="none" stroke="#333" stroke-linecap="round" stroke-linejoin="round" stroke-width="1"/>
    <path id="Path_190" data-name="Path 190" d="M290.54,323.939l-4.809,3.236,2.441-9.012Z" transform="translate(0 0.153)" fill="#d9b786"/>
    <path id="Path_191" data-name="Path 191" d="M298.523,280.37s8.006.738,11.925-2.165,4.291-4.269,4.291-4.269" transform="translate(0 0.092)" fill="none" stroke="#333" stroke-linecap="round" stroke-linejoin="round" stroke-width="1"/>
    <path id="Path_192" data-name="Path 192" d="M300.362,249.728a1.943,1.943,0,1,1-2-1.879A1.943,1.943,0,0,1,300.362,249.728Z" transform="translate(0 0.056)" fill="#fff"/>
    <path id="Path_193" data-name="Path 193" d="M337.347,318l-6.44,5.85,5.446-11.633Z" transform="translate(0 0.148)" fill="#d9b786"/>
    <path id="Path_194" data-name="Path 194" d="M315.837,273.9s15.348-1.543,20.24,19.2" transform="translate(0 0.101)" fill="none" stroke="#333" stroke-linecap="round" stroke-linejoin="round" stroke-width="1"/>
    <path id="Path_195" data-name="Path 195" d="M269.214,324.4s.482,18.253.653,18.823" transform="translate(0 0.19)" fill="none" stroke="#333" stroke-linecap="round" stroke-linejoin="round" stroke-width="1"/>
    <path id="Path_196" data-name="Path 196" d="M302.39,244.092c.272-.436-.418-3.211-2.468-4.258" transform="translate(0 0.046)" fill="none" stroke="#6f6b5f" stroke-linecap="round" stroke-linejoin="round" stroke-width="1.019"/>
    <path id="Path_197" data-name="Path 197" d="M348.956,288.914l-4,.2c-.387.019-.58-.317-.431-.748h0a1.24,1.24,0,0,1,.973-.819l4-.2c.387-.019.581.317.431.748h0A1.239,1.239,0,0,1,348.956,288.914Z" transform="translate(0 0.106)" fill="#fff"/>
    <rect id="_2" data-name="2" width="36" height="26" rx="4" transform="translate(329.536 245.36)" fill="#7863d7"/>
    <rect id="_1" data-name="1" width="6" height="6" transform="translate(347.536 267.117) rotate(45)" fill="#7863d7"/>
    <path id="Path_198" data-name="Path 198" d="M265.5,384.46l4.766,4.5,10.234-10" transform="translate(75.039 -125.599)" fill="none" stroke="#fff" stroke-linecap="round" stroke-linejoin="round" stroke-width="3"/>
    <path id="Path_226" data-name="Path 226" d="M1124.332,237.7s13.647,7.62,7.358,16.181" transform="translate(1013.937 1143.726) rotate(-141)" fill="none" stroke="#6f6b5f" stroke-linecap="round" stroke-linejoin="round" stroke-width="1"/>
    <line id="Line_56" data-name="Line 56" x1="4" y1="6" transform="translate(308.036 214.86)" fill="none" stroke="#6f6b5f" stroke-linecap="round" stroke-linejoin="round" stroke-width="1"/>
  </g>
</svg>
