<svg id="ill-1" xmlns="http://www.w3.org/2000/svg" width="170" height="170" viewBox="0 0 170 170">
  <rect id="bg" width="170" height="170" fill="none"/>
  <g id="ill" transform="translate(-619.365 -652.079)">
    <path id="b" d="M1126.726,277.933a24.152,24.152,0,0,1-4.225,2.7,18.615,18.615,0,0,1-13.01,1.505c-5.956-1.488-11.013-5.563-17.991-3.846-5.861,1.443-12,6.745-18.032,9.832-24.874,12.721-38.917-21.485-21.047-51.216,4.738-7.884,11.485-13.711,18.044-18.353,18.716-13.246,53.5-43.646,64.572-23.559,3.464,6.285,1.483,16.382.239,25.486-1.52,11.118.692,18.74,2.174,28.026a32.014,32.014,0,0,1-2.563,19.37A29.986,29.986,0,0,1,1126.726,277.933Z" transform="matrix(0.99, -0.139, 0.139, 0.99, -394.047, 644.624)" fill="#fff"/>
    <path id="Path_117" data-name="Path 117" d="M684.3,685.3c-.451-.338-7.973-3.725-5.867-8.566s3.486-2.288,7.61-6.494,8.311-12.33,16.234-5.559,9.715,6.817,12.561,6.16c8.123-1.878,13.238,5.182,8.574,10.741s.151,9.414,3.911,11.58-7.8,12.81-13.751,12.371-4.376,5.419-9.152,5.869-27.491-7.007-24.182-15.9S684.3,685.3,684.3,685.3Z" fill="#333"/>
    <path id="Path_118" data-name="Path 118" d="M638.615,731.455l-1.489-9.773,7.751-8.352c4.345,6.33,6.763,12.181,4.058,16.763Z" fill="#f0d7b4"/>
    <path id="Path_119" data-name="Path 119" d="M656.319,725.62l-8.678-1.5a6.477,6.477,0,0,1-4.519-4.1l-5.91-18.565c-.615-1.93.413-3.245,2.284-2.921l8.679,1.5a6.477,6.477,0,0,1,4.518,4.1L658.6,722.7C659.218,724.629,658.19,725.943,656.319,725.62Z" fill="#333"/>
    <path id="Path_120" data-name="Path 120" d="M639.943,697.558a1.9,1.9,0,0,1,2.352-1.14l8.679,1.5a6.475,6.475,0,0,1,4.518,4.1l5.911,18.566" fill="none" stroke="#333" stroke-linecap="round" stroke-linejoin="round" stroke-width="1"/>
    <path id="Path_121" data-name="Path 121" d="M639.71,703.336,641.45,702a2.494,2.494,0,0,1,2.351-.372l5.328,1.885a.918.918,0,0,1,.456,1.378h0a.918.918,0,0,1-.869.4l-5.838-.677-1.338,2.678,4.166.4,2.988,1.765a1.565,1.565,0,0,1,.655,1.935h0l-.777,1.652a4.634,4.634,0,0,1-6.264,2.169l-.8-.4,3.4,9.322-7.568-1.024-1.98-10.106a9.526,9.526,0,0,1,1.464-5.1Z" fill="#f0d7b4"/>
    <path id="Path_122" data-name="Path 122" d="M691.538,714.884c-2.673-.431-5.95-1.976-7.314-4.312-2.028-3.471-3.393-11.111-2.247-13.832,3.7-8.781,3.835-19.143,12.636-19.658,11.163-.653,19.667,4.026,17.766,11.8s-6.954,20.414-6.954,20.414l-7.937,4.516a9.1,9.1,0,0,1-5.95,1.074Z" fill="#f0d7b4"/>
    <path id="Path_123" data-name="Path 123" d="M689.714,723.728a5.57,5.57,0,0,0,4.275-4.689c.451-3.906-1.588-10.183-1.588-10.183l16.786-8.777s1.137,18.842,2.19,20.044a20.037,20.037,0,0,0,3.46,2.7L713.784,738H694.378s-8.566-4.507-8.566-4.958S689.714,723.728,689.714,723.728Z" fill="#f0d7b4"/>
    <path id="Path_124" data-name="Path 124" d="M692.723,693.856s-3.749,3.519-2.96,4.966c.515.945,2.638,1.174,2.638,1.174" fill="none" stroke="#6f6b5f" stroke-linecap="round" stroke-linejoin="round" stroke-width="1"/>
    <path id="Path_125" data-name="Path 125" d="M697.489,693.672a3.207,3.207,0,0,0,3.723,1.572" fill="none" stroke="#333" stroke-linecap="round" stroke-linejoin="round" stroke-width="0.961"/>
    <path id="Path_126" data-name="Path 126" d="M686.825,691.231s.48,2.142,3.072,1.452" fill="none" stroke="#333" stroke-linecap="round" stroke-linejoin="round" stroke-width="0.961"/>
    <path id="Path_127" data-name="Path 127" d="M689.347,704.547s2.83,2.831,7.813-1.121" fill="none" stroke="#6f6b5f" stroke-linecap="round" stroke-linejoin="round" stroke-width="1"/>
    <path id="Path_128" data-name="Path 128" d="M697.955,688.225s6.153,1.305,7.2,1.956,2.651-2.072-4.23-3.349C696.2,685.954,697.422,688.3,697.955,688.225Z" fill="#333"/>
    <path id="Path_129" data-name="Path 129" d="M686.419,687.535s4.258-.261,5.112.132,1.038-2.8-3.668-2.323C684.631,685.672,686.109,687.753,686.419,687.535Z" fill="#333"/>
    <path id="Path_130" data-name="Path 130" d="M669.331,729.726s-6.137,1.084-10.41,17.081-7.284,34.208-7.284,34.208,1.933,7.806,9.424,6.73,15.561-32.479,15.561-32.479Z" fill="#e0e0e0"/>
    <path id="Path_131" data-name="Path 131" d="M637.74,730s1.481,56.579,21.162,58.172S650.6,730,650.6,730Z" fill="#e0e0e0"/>
    <path id="Path_132" data-name="Path 132" d="M669.331,729.726l5.34,29.1a69.059,69.059,0,0,1-.3,36c-.894,3.435-.894,3.435-.158,6.978,9.287,17.044,37.107,9.947,61.283-.193a5.437,5.437,0,0,0,5.336-4.388c2.7-13.772.032-27.24-4.939-42.108-3.719-15.215-4.641-24.148-1.845-29.378l-16.521-3.85a2.986,2.986,0,0,0-3.318,1.5c-2.131,4.021-7.617,12.481-15.623,11.445-6.978-.9-8.6-6.3-8.911-9.786a2.2,2.2,0,0,0-2.958-1.881Z" fill="#e0e0e0"/>
    <path id="Path_133" data-name="Path 133" d="M697.281,675.054s-6.125-.294-7.416,2.274-4.925,1.56-4.851,3.93,4.244,1.983,5.231,0,1.644-4.038,5.417-3.3,7.831-1.1,6.851-2.09S697.281,675.054,697.281,675.054Z" fill="#333"/>
    <path id="Path_134" data-name="Path 134" d="M715.112,685.689s-1.667-5.649-5.489-6.31-3.712-4.181-6.815-3.637-1.192,4.272,1.76,4.774,5.88.688,6.179,4.279,4.075,6.926,5.058,5.831S715.112,685.689,715.112,685.689Z" fill="#333"/>
    <path id="Path_135" data-name="Path 135" d="M734.052,725.737c5.313-.027,20.354,20.946,31.857,34.282,0,0,7.548,15.56-2.637,18.809s-31.542-23.689-31.542-23.689C724.546,742.416,725.707,732.757,734.052,725.737Z" fill="#e0e0e0"/>
    <path id="Path_136" data-name="Path 136" d="M677.935,760.981a52.539,52.539,0,0,0,48.571-5.585s2.838,11.415,3.177,14.772c0,0-24.157,16.2-51.237,3.4C678.447,773.567,679.171,763.944,677.935,760.981Z" transform="translate(3.624)" fill="#7863d7"/>
    <path id="Path_137" data-name="Path 137" d="M693.784,715a15.315,15.315,0,0,1,.247,3.846s8.3-2.88,10.21-7.962A23.375,23.375,0,0,1,693.784,715Z" fill="#d9b786"/>
    <path id="Path_138" data-name="Path 138" d="M719.148,693.982" fill="#b55743"/>
    <path id="Path_139" data-name="Path 139" d="M735.97,706.279l4.278-5.29a2.675,2.675,0,0,1,3.836-.335h0a2.666,2.666,0,0,1,.358,3.645l-4.008,5.176,1.436,1.906c1.6,2.433,9.01,13.21,9.01,13.21l-10.063,7.478-6.449-10.789s-8.552.422-11.186-4.979c-1.421-2.912-2.163-9.5,4.129-11.967A7.931,7.931,0,0,1,735.97,706.279Z" fill="#f0d7b4"/>
    <path id="Path_140" data-name="Path 140" d="M735.609,725.234s15.574,56.792,27.663,53.594,9.673-20.394,6.568-26.244-21.9-34.275-21.9-34.275Z" fill="#e0e0e0"/>
    <path id="Path_141" data-name="Path 141" d="M749.533,763.957s-11.646-31.389-13.924-38.723" fill="none" stroke="#333" stroke-linecap="round" stroke-linejoin="round" stroke-width="1"/>
    <path id="Path_142" data-name="Path 142" d="M658.444,748.624a65.964,65.964,0,0,1,4.747,17.329" fill="none" stroke="#333" stroke-linecap="round" stroke-linejoin="round" stroke-width="1"/>
    <path id="Path_143" data-name="Path 143" d="M693.253,736.718s4.2,6.438,14.55,1.017" fill="none" stroke="#333" stroke-linecap="round" stroke-linejoin="round" stroke-width="1"/>
  </g>
</svg>
