<svg xmlns="http://www.w3.org/2000/svg" xmlns:xlink="http://www.w3.org/1999/xlink" width="60" height="20" viewBox="0 0 60 20">
  <defs>
    <clipPath id="clip-mvh-logo">
      <rect width="60" height="20"/>
    </clipPath>
  </defs>
  <g id="mvh-logo" clip-path="url(#clip-mvh-logo)">
    <rect width="60" height="20" fill="#fff"/>
    <g id="mvh-logo-2" data-name="mvh-logo" transform="translate(-5365 -1072)">
      <ellipse id="dot" cx="2.299" cy="2.299" rx="2.299" ry="2.299" transform="translate(5420.402 1087.402)" fill="#212626"/>
      <path id="h" d="M1055.521,437.521v8.369a4.642,4.642,0,0,1,4.569-2.825c3.1,0,4.684,1.9,4.684,5.622v8.7h-4.6v-8.252c0-1.762-.719-2.657-2.127-2.657-1.638,0-2.529,1.2-2.529,3.385v7.524H1050.9V437.521Z" transform="translate(4353.33 634.479)" fill="#212626"/>
      <path id="v" d="M871.653,506.064l2.328,8.477a17.14,17.14,0,0,1,.431,2.04h.057a12.962,12.962,0,0,1,.431-2.04l2.328-8.477h4.741l-5.029,14.367h-5.029l-5-14.367Z" transform="translate(4521.093 571.432)" fill="#212626"/>
      <path id="M" d="M612.577,437.553l3.765,12.168a13.594,13.594,0,0,1,.488,2.406h.057a15.042,15.042,0,0,1,.517-2.462L621,437.553h6.753v19.86h-4.425V443.875a19.356,19.356,0,0,1,.115-2.238h-.087a11.028,11.028,0,0,1-.431,1.93l-4.109,13.846h-4.08l-4.282-13.846a9.054,9.054,0,0,1-.431-1.9h-.087c.058.671.115,1.427.115,2.21v13.538h-4.138v-19.86Z" transform="translate(4759.089 634.45)" fill="#212626"/>
    </g>
  </g>
</svg>
